# xmcd
# 
# Track frame offsets:
#     150
#     17340
#     47382
#     65972
# 
# Disc length: 1170
# 
# Revision: 0
# Processed by: cddbd v1.5.2PL0 Copyright (c) Steve Scherf et al.
# Submitted via: fre:ac v1.0.31
# 
DISCID=2a049004
DTITLE=Nuke - Nana
DYEAR=0
DGENRE=Dance
TTITLE0=Nana 7" version
TTITLE1=Nana Vocal original mix
TTITLE2=Nana Suicide remix
TTITLE3=Moontrip Back to life mix
EXTD=
EXTT0=
EXTT1=
EXTT2=
EXTT3=
PLAYORDER=
